<?xml version="1.0" standalone="no"?>
<!DOCTYPE svg PUBLIC "-//W3C//DTD SVG 20010904//EN"
 "http://www.w3.org/TR/2001/REC-SVG-20010904/DTD/svg10.dtd">
<svg version="1.0" xmlns="http://www.w3.org/2000/svg"
 width="512.000000pt" height="512.000000pt" viewBox="0 0 512.000000 512.000000"
 preserveAspectRatio="xMidYMid meet">

<g transform="translate(0.000000,512.000000) scale(0.100000,-0.100000)"
fill="#000000" stroke="none">
<path d="M2780 4840 l0 -110 -110 0 -110 0 0 -720 0 -720 -110 0 -110 0 0
-115 0 -115 -170 0 -170 0 0 -110 0 -110 -165 0 -165 0 0 -110 0 -110 -110 0
-110 0 0 -115 0 -115 -225 0 -225 0 0 115 0 115 -110 0 -110 0 0 110 0 110
-115 0 -115 0 0 225 0 225 -110 0 -110 0 0 -670 0 -670 110 0 110 0 0 -110 0
-110 115 0 115 0 0 -115 0 -115 110 0 110 0 0 -110 0 -110 110 0 110 0 0 -110
0 -110 115 0 115 0 0 -445 0 -445 220 0 220 0 0 110 0 110 -110 0 -110 0 0
110 0 110 110 0 110 0 0 115 0 115 110 0 110 0 0 110 0 110 115 0 115 0 0
-110 0 -110 110 0 110 0 0 -335 0 -335 220 0 220 0 0 110 0 110 -110 0 -110 0
0 445 0 445 110 0 110 0 0 110 0 110 115 0 115 0 0 170 0 170 110 0 110 0 0
390 0 390 110 0 110 0 0 -115 0 -115 110 0 110 0 0 225 0 225 -220 0 -220 0 0
225 0 225 445 0 445 0 0 110 0 110 -335 0 -335 0 0 110 0 110 555 0 555 0 0
500 0 500 -110 0 -110 0 0 110 0 110 -890 0 -890 0 0 -110z m450 -330 l0 -110
-115 0 -115 0 0 110 0 110 115 0 115 0 0 -110z"/>
<path d="M110 895 l0 -55 445 0 445 0 0 55 0 55 -445 0 -445 0 0 -55z"/>
<path d="M3230 895 l0 -55 890 0 890 0 0 55 0 55 -890 0 -890 0 0 -55z"/>
<path d="M780 445 l0 -55 220 0 220 0 0 55 0 55 -220 0 -220 0 0 -55z"/>
<path d="M4670 225 l0 -55 55 0 55 0 0 55 0 55 -55 0 -55 0 0 -55z"/>
<path d="M110 110 l0 -60 220 0 220 0 0 60 0 60 -220 0 -220 0 0 -60z"/>
</g>
</svg>
